<mxfile host="65bd71144e">
    <diagram id="5YO7ihRoi8k78nAKadNr" name="Page-1">
        <mxGraphModel dx="2639" dy="1162" grid="0" gridSize="10" guides="1" tooltips="1" connect="1" arrows="1" fold="1" page="1" pageScale="1" pageWidth="1600" pageHeight="1200" background="#ffffff" math="0" shadow="0">
            <root>
                <mxCell id="0"/>
                <mxCell id="1" parent="0"/>
                <mxCell id="2" value="&lt;h1&gt;&lt;font style=&quot;font-size: 48px;&quot; color=&quot;#000000&quot;&gt;Bloom Filter&lt;/font&gt;&lt;/h1&gt;" style="text;html=1;align=center;verticalAlign=middle;resizable=0;points=[];autosize=1;strokeColor=none;fillColor=none;" vertex="1" parent="1">
                    <mxGeometry x="651" y="265" width="298" height="102" as="geometry"/>
                </mxCell>
                <mxCell id="35" style="edgeStyle=none;html=1;exitX=0.31;exitY=0.8;exitDx=0;exitDy=0;exitPerimeter=0;entryX=0.5;entryY=0;entryDx=0;entryDy=0;fontSize=24;fontColor=#000000;strokeColor=#000000;" edge="1" parent="1" source="3" target="26">
                    <mxGeometry relative="1" as="geometry"/>
                </mxCell>
                <mxCell id="3" value="&lt;font style=&quot;font-size: 24px;&quot;&gt;HashFunction 1&lt;/font&gt;" style="ellipse;shape=cloud;whiteSpace=wrap;html=1;fontSize=48;fontColor=#000000;fillColor=none;strokeColor=#000000;" vertex="1" parent="1">
                    <mxGeometry x="502" y="522" width="283" height="125" as="geometry"/>
                </mxCell>
                <mxCell id="37" style="edgeStyle=none;html=1;entryX=0.5;entryY=0;entryDx=0;entryDy=0;strokeColor=#000000;fontSize=24;fontColor=#000000;exitX=0.55;exitY=0.95;exitDx=0;exitDy=0;exitPerimeter=0;" edge="1" parent="1" source="4" target="18">
                    <mxGeometry relative="1" as="geometry"/>
                </mxCell>
                <mxCell id="40" style="edgeStyle=none;html=1;entryX=0.5;entryY=0;entryDx=0;entryDy=0;strokeColor=#000000;fontSize=24;fontColor=#000000;exitX=0.31;exitY=0.8;exitDx=0;exitDy=0;exitPerimeter=0;" edge="1" parent="1" source="4" target="12">
                    <mxGeometry relative="1" as="geometry"/>
                </mxCell>
                <mxCell id="4" value="&lt;font style=&quot;font-size: 24px;&quot;&gt;......&lt;/font&gt;" style="ellipse;shape=cloud;whiteSpace=wrap;html=1;fontSize=48;fontColor=#000000;fillColor=none;strokeColor=#000000;" vertex="1" parent="1">
                    <mxGeometry x="706" y="522" width="283" height="125" as="geometry"/>
                </mxCell>
                <mxCell id="39" style="edgeStyle=none;html=1;entryX=0.5;entryY=0;entryDx=0;entryDy=0;strokeColor=#000000;fontSize=24;fontColor=#000000;exitX=0.392;exitY=0.896;exitDx=0;exitDy=0;exitPerimeter=0;" edge="1" parent="1" source="6" target="28">
                    <mxGeometry relative="1" as="geometry"/>
                </mxCell>
                <mxCell id="6" value="&lt;font style=&quot;font-size: 24px;&quot;&gt;HashFunction N&lt;/font&gt;" style="ellipse;shape=cloud;whiteSpace=wrap;html=1;fontSize=48;fontColor=#000000;fillColor=none;strokeColor=#000000;" vertex="1" parent="1">
                    <mxGeometry x="846" y="522" width="283" height="125" as="geometry"/>
                </mxCell>
                <mxCell id="7" value="0" style="rounded=0;whiteSpace=wrap;html=1;strokeColor=#000000;fontSize=24;fontColor=#000000;fillColor=none;" vertex="1" parent="1">
                    <mxGeometry x="310" y="737" width="47" height="43" as="geometry"/>
                </mxCell>
                <mxCell id="12" value="1" style="rounded=0;whiteSpace=wrap;html=1;strokeColor=#000000;fontSize=24;fontColor=#000000;fillColor=none;" vertex="1" parent="1">
                    <mxGeometry x="357" y="737" width="47" height="43" as="geometry"/>
                </mxCell>
                <mxCell id="15" value="0" style="rounded=0;whiteSpace=wrap;html=1;strokeColor=#000000;fontSize=24;fontColor=#000000;fillColor=none;" vertex="1" parent="1">
                    <mxGeometry x="404" y="737" width="47" height="43" as="geometry"/>
                </mxCell>
                <mxCell id="16" value="0" style="rounded=0;whiteSpace=wrap;html=1;strokeColor=#000000;fontSize=24;fontColor=#000000;fillColor=none;" vertex="1" parent="1">
                    <mxGeometry x="451" y="737" width="47" height="43" as="geometry"/>
                </mxCell>
                <mxCell id="17" value="0" style="rounded=0;whiteSpace=wrap;html=1;strokeColor=#000000;fontSize=24;fontColor=#000000;fillColor=none;" vertex="1" parent="1">
                    <mxGeometry x="1066" y="737" width="47" height="43" as="geometry"/>
                </mxCell>
                <mxCell id="18" value="1" style="rounded=0;whiteSpace=wrap;html=1;strokeColor=#000000;fontSize=24;fontColor=#000000;fillColor=none;" vertex="1" parent="1">
                    <mxGeometry x="1113" y="737" width="47" height="43" as="geometry"/>
                </mxCell>
                <mxCell id="19" value="0" style="rounded=0;whiteSpace=wrap;html=1;strokeColor=#000000;fontSize=24;fontColor=#000000;fillColor=none;" vertex="1" parent="1">
                    <mxGeometry x="1160" y="737" width="47" height="43" as="geometry"/>
                </mxCell>
                <mxCell id="20" value="0" style="rounded=0;whiteSpace=wrap;html=1;strokeColor=#000000;fontSize=24;fontColor=#000000;fillColor=none;" vertex="1" parent="1">
                    <mxGeometry x="1207" y="737" width="47" height="43" as="geometry"/>
                </mxCell>
                <mxCell id="25" value="........" style="rounded=0;whiteSpace=wrap;html=1;strokeColor=#000000;fontSize=24;fontColor=#000000;fillColor=none;" vertex="1" parent="1">
                    <mxGeometry x="499" y="737" width="566" height="43" as="geometry"/>
                </mxCell>
                <mxCell id="26" value="1" style="rounded=0;whiteSpace=wrap;html=1;strokeColor=#000000;fontSize=24;fontColor=#000000;fillColor=none;" vertex="1" parent="1">
                    <mxGeometry x="620" y="737" width="47" height="43" as="geometry"/>
                </mxCell>
                <mxCell id="27" value="...." style="text;html=1;align=center;verticalAlign=middle;resizable=0;points=[];autosize=1;strokeColor=none;fillColor=none;fontSize=24;fontColor=#000000;" vertex="1" parent="1">
                    <mxGeometry x="526" y="739" width="45" height="41" as="geometry"/>
                </mxCell>
                <mxCell id="28" value="1" style="rounded=0;whiteSpace=wrap;html=1;strokeColor=#000000;fontSize=24;fontColor=#000000;fillColor=none;" vertex="1" parent="1">
                    <mxGeometry x="860" y="737" width="47" height="43" as="geometry"/>
                </mxCell>
                <mxCell id="29" value="1" style="rounded=0;whiteSpace=wrap;html=1;strokeColor=#000000;fontSize=24;fontColor=#000000;fillColor=none;" vertex="1" parent="1">
                    <mxGeometry x="973" y="737" width="47" height="43" as="geometry"/>
                </mxCell>
                <mxCell id="30" value="...." style="text;html=1;align=center;verticalAlign=middle;resizable=0;points=[];autosize=1;strokeColor=none;fillColor=none;fontSize=24;fontColor=#000000;" vertex="1" parent="1">
                    <mxGeometry x="912" y="738" width="45" height="41" as="geometry"/>
                </mxCell>
                <mxCell id="31" value="...." style="text;html=1;align=center;verticalAlign=middle;resizable=0;points=[];autosize=1;strokeColor=none;fillColor=none;fontSize=24;fontColor=#000000;" vertex="1" parent="1">
                    <mxGeometry x="1021" y="738" width="45" height="41" as="geometry"/>
                </mxCell>
                <mxCell id="34" style="edgeStyle=none;html=1;fontSize=24;fontColor=#000000;strokeColor=#000000;" edge="1" parent="1" source="33">
                    <mxGeometry relative="1" as="geometry">
                        <mxPoint x="675" y="541" as="targetPoint"/>
                    </mxGeometry>
                </mxCell>
                <mxCell id="36" style="edgeStyle=none;html=1;entryX=0.4;entryY=0.1;entryDx=0;entryDy=0;entryPerimeter=0;strokeColor=#000000;fontSize=24;fontColor=#000000;" edge="1" parent="1" source="33" target="4">
                    <mxGeometry relative="1" as="geometry"/>
                </mxCell>
                <mxCell id="38" style="edgeStyle=none;html=1;entryX=0.4;entryY=0.1;entryDx=0;entryDy=0;entryPerimeter=0;strokeColor=#000000;fontSize=24;fontColor=#000000;" edge="1" parent="1" source="33" target="6">
                    <mxGeometry relative="1" as="geometry"/>
                </mxCell>
                <mxCell id="41" style="edgeStyle=none;html=1;exitX=0.5;exitY=1;exitDx=0;exitDy=0;entryX=0.25;entryY=0.25;entryDx=0;entryDy=0;entryPerimeter=0;strokeColor=#000000;fontSize=24;fontColor=#000000;" edge="1" parent="1" source="33" target="4">
                    <mxGeometry relative="1" as="geometry"/>
                </mxCell>
                <mxCell id="33" value="Input" style="rounded=0;whiteSpace=wrap;html=1;strokeColor=#000000;fontSize=24;fontColor=#000000;fillColor=none;" vertex="1" parent="1">
                    <mxGeometry x="740" y="409" width="120" height="60" as="geometry"/>
                </mxCell>
            </root>
        </mxGraphModel>
    </diagram>
</mxfile>